<svg xmlns="http://www.w3.org/2000/svg" version="1.1" xmlns:xlink="http://www.w3.org/1999/xlink" xmlns:svgjs="http://svgjs.com/svgjs" width="512" height="512" x="0" y="0" viewBox="0 0 128 128" style="enable-background:new 0 0 512 512" xml:space="preserve" class=""><g><path fill="#fff5f5" d="M1.75 46.75h124.5v34.494H1.75z" data-original="#fff5f5" class=""></path><circle cx="64" cy="63.997" r="10.747" fill="#4bb9ec" data-original="#4bb9ec"></circle><path fill="#0071ff" d="M74.747 64a10.743 10.743 0 0 0-.155-1.75h-6.367l4.5-4.5a10.8 10.8 0 0 0-2.474-2.474l-4.5 4.5v-6.371a9.957 9.957 0 0 0-3.5 0v6.368l-4.5-4.5a10.8 10.8 0 0 0-2.474 2.474l4.5 4.5h-6.369a9.957 9.957 0 0 0 0 3.5h6.367l-4.5 4.5a10.778 10.778 0 0 0 2.474 2.474l4.5-4.5v6.367a9.957 9.957 0 0 0 3.5 0v-6.366l4.5 4.5a10.778 10.778 0 0 0 2.474-2.474l-4.5-4.5h6.367A10.743 10.743 0 0 0 74.747 64z" data-original="#0071ff"></path><path fill="#7fe881" d="M1.75 81.244h124.5v29H1.75z" data-original="#7fe881" class=""></path><path fill="#fdbf00" d="M1.75 17.75h124.5v29H1.75z" data-original="#fdbf00" class=""></path></g></svg>